<?xml version="1.0" encoding="utf-8"?>
<svg width="250" height="50" viewBox="0 0 250 50" fill="none" xmlns="http://www.w3.org/2000/svg">
  <defs>
    <clipPath id="clip_path_1">
      <rect width="238" height="27" />
    </clipPath>
  </defs>
  <g>
    <rect width="250" height="50" />
    <path d="M7.905 26.66L3.255 26.66Q2.666 26.66 2.4025 26.3965Q2.139 26.133 2.139 25.544L2.139 5.456Q2.139 4.867 2.4025 4.6035Q2.666 4.34 3.255 4.34L6.479 4.34Q7.068 4.34 7.4865 4.526Q7.905 4.712 8.308 5.177L14.322 12.059L14.322 5.456Q14.322 4.867 14.5855 4.6035Q14.849 4.34 15.438 4.34L20.088 4.34Q20.677 4.34 20.9405 4.6035Q21.204 4.867 21.204 5.456L21.204 25.544Q21.204 26.133 20.9405 26.3965Q20.677 26.66 20.088 26.66L15.438 26.66Q14.849 26.66 14.5855 26.3965Q14.322 26.133 14.322 25.544L14.322 21.731L9.021 15.314L9.021 25.544Q9.021 26.133 8.7575 26.3965Q8.494 26.66 7.905 26.66ZM40.982 26.66L26.598 26.66Q26.009 26.66 25.7455 26.3965Q25.482 26.133 25.482 25.544L25.482 5.456Q25.482 4.867 25.7455 4.6035Q26.009 4.34 26.598 4.34L40.982 4.34Q41.571 4.34 41.8345 4.6035Q42.098 4.867 42.098 5.456L42.098 9.083Q42.098 9.672 41.8345 9.9355Q41.571 10.199 40.982 10.199L32.426 10.199L32.426 12.586L38.471 12.586Q39.06 12.586 39.3235 12.8495Q39.587 13.113 39.587 13.702L39.587 17.019Q39.587 17.608 39.3235 17.8715Q39.06 18.135 38.471 18.135L32.426 18.135L32.426 20.801L40.982 20.801Q41.571 20.801 41.8345 21.0645Q42.098 21.328 42.098 21.917L42.098 25.544Q42.098 26.133 41.8345 26.3965Q41.571 26.66 40.982 26.66ZM61.783 4.34L66.402 4.34Q66.991 4.34 67.2545 4.6035Q67.518 4.867 67.518 5.456L67.518 17.484Q67.518 18.476 67.4405 19.3285Q67.363 20.181 66.96 21.328L65.41 25.544Q65.255 26.009 64.9605 26.3345Q64.666 26.66 64.17 26.66L60.047 26.66Q59.551 26.66 59.148 26.443Q58.745 26.226 58.621 25.73L57.195 20.677Q57.102 20.367 56.9625 20.2585Q56.823 20.15 56.637 20.15L56.358 20.15Q56.172 20.15 56.0325 20.2585Q55.893 20.367 55.8 20.677L54.343 25.73Q54.219 26.195 53.878 26.4275Q53.537 26.66 53.041 26.66L48.949 26.66Q48.453 26.66 48.0965 26.35Q47.74 26.04 47.585 25.544L46.035 21.266Q45.632 20.119 45.5545 19.2665Q45.477 18.414 45.477 17.422L45.477 5.456Q45.477 4.867 45.7405 4.6035Q46.004 4.34 46.593 4.34L51.367 4.34Q51.956 4.34 52.2195 4.6035Q52.483 4.867 52.483 5.456L52.483 16.864L54.281 12.958Q54.529 12.431 54.932 12.214Q55.335 11.997 55.924 11.997L57.226 11.997Q57.815 11.997 58.218 12.214Q58.621 12.431 58.869 12.958L60.667 16.864L60.667 5.456Q60.667 4.867 60.9305 4.6035Q61.194 4.34 61.783 4.34ZM77.438 26.66L72.633 26.66Q72.044 26.66 71.7805 26.3965Q71.517 26.133 71.517 25.544L71.517 5.456Q71.517 4.867 71.7805 4.6035Q72.044 4.34 72.633 4.34L82.119 4.34Q86.335 4.34 87.885 6.014Q89.435 7.688 89.435 10.385L89.435 14.353Q89.435 17.05 87.885 18.724Q86.335 20.398 82.119 20.398L78.554 20.398L78.554 25.544Q78.554 26.133 78.2905 26.3965Q78.027 26.66 77.438 26.66ZM78.492 10.137L78.492 14.818L81.282 14.818Q82.181 14.818 82.46 14.353Q82.739 13.888 82.739 13.299L82.739 11.656Q82.739 11.067 82.46 10.602Q82.181 10.137 81.282 10.137L78.492 10.137ZM108.159 26.66L93.775 26.66Q93.186 26.66 92.9225 26.3965Q92.659 26.133 92.659 25.544L92.659 5.456Q92.659 4.867 92.9225 4.6035Q93.186 4.34 93.775 4.34L108.159 4.34Q108.748 4.34 109.011 4.6035Q109.275 4.867 109.275 5.456L109.275 9.083Q109.275 9.672 109.011 9.9355Q108.748 10.199 108.159 10.199L99.603 10.199L99.603 12.586L105.648 12.586Q106.237 12.586 106.5 12.8495Q106.764 13.113 106.764 13.702L106.764 17.019Q106.764 17.608 106.5 17.8715Q106.237 18.135 105.648 18.135L99.603 18.135L99.603 20.801L108.159 20.801Q108.748 20.801 109.011 21.0645Q109.275 21.328 109.275 21.917L109.275 25.544Q109.275 26.133 109.011 26.3965Q108.748 26.66 108.159 26.66ZM123.473 26.66L118.451 26.66Q117.862 26.66 117.598 26.3965Q117.335 26.133 117.335 25.544L117.335 10.323L112.778 10.323Q112.189 10.323 111.925 10.0595Q111.662 9.796 111.662 9.207L111.662 5.456Q111.662 4.867 111.925 4.6035Q112.189 4.34 112.778 4.34L129.146 4.34Q129.735 4.34 129.999 4.6035Q130.262 4.867 130.262 5.456L130.262 9.207Q130.262 9.796 129.999 10.0595Q129.735 10.323 129.146 10.323L124.589 10.323L124.589 25.544Q124.589 26.133 124.326 26.3965Q124.062 26.66 123.473 26.66ZM143.623 26.66L133.827 26.66Q133.238 26.66 132.975 26.3965Q132.711 26.133 132.711 25.544L132.711 21.917Q132.711 21.328 132.975 21.0645Q133.238 20.801 133.827 20.801L142.166 20.801Q142.569 20.801 142.771 20.5375Q142.972 20.274 142.972 19.902Q142.972 19.375 142.771 19.127Q142.569 18.879 142.166 18.848L137.516 18.197Q135.346 17.887 134.029 16.771Q132.711 15.655 132.711 13.051L132.711 9.796Q132.711 7.161 134.416 5.7505Q136.121 4.34 139.128 4.34L147.808 4.34Q148.397 4.34 148.661 4.6035Q148.924 4.867 148.924 5.456L148.924 9.145Q148.924 9.734 148.661 9.9975Q148.397 10.261 147.808 10.261L140.585 10.261Q140.182 10.261 139.965 10.5245Q139.748 10.788 139.748 11.191Q139.748 11.594 139.965 11.873Q140.182 12.152 140.585 12.183L145.204 12.803Q147.374 13.113 148.707 14.229Q150.04 15.345 150.04 17.949L150.04 21.204Q150.04 23.839 148.32 25.2495Q146.599 26.66 143.623 26.66ZM163.649 26.66L158.627 26.66Q158.038 26.66 157.775 26.3965Q157.511 26.133 157.511 25.544L157.511 10.323L152.954 10.323Q152.365 10.323 152.102 10.0595Q151.838 9.796 151.838 9.207L151.838 5.456Q151.838 4.867 152.102 4.6035Q152.365 4.34 152.954 4.34L169.322 4.34Q169.911 4.34 170.174 4.6035Q170.438 4.867 170.438 5.456L170.438 9.207Q170.438 9.796 170.174 10.0595Q169.911 10.323 169.322 10.323L164.765 10.323L164.765 25.544Q164.765 26.133 164.501 26.3965Q164.238 26.66 163.649 26.66ZM192.2 20.801Q192.2 22.227 191.781 23.3895Q191.363 24.552 190.294 25.3735Q189.224 26.195 187.348 26.66Q185.473 27.125 182.59 27.125Q179.707 27.125 177.816 26.66Q175.925 26.195 174.855 25.3735Q173.786 24.552 173.368 23.3895Q172.949 22.227 172.949 20.801L172.949 10.23Q172.949 8.804 173.368 7.6415Q173.786 6.479 174.855 5.642Q175.925 4.805 177.816 4.34Q179.707 3.875 182.59 3.875Q185.473 3.875 187.348 4.34Q189.224 4.805 190.294 5.642Q191.363 6.479 191.781 7.6415Q192.2 8.804 192.2 10.23L192.2 20.801ZM179.986 19.685Q179.986 20.305 180.451 20.7235Q180.916 21.142 182.59 21.142Q184.264 21.142 184.729 20.7235Q185.194 20.305 185.194 19.685L185.194 11.346Q185.194 10.757 184.729 10.3385Q184.264 9.92 182.59 9.92Q180.916 9.92 180.451 10.3385Q179.986 10.757 179.986 11.346L179.986 19.685ZM203.143 9.92L203.143 13.888L205.468 13.888Q206.274 13.888 206.553 13.4695Q206.832 13.051 206.832 12.431L206.832 11.377Q206.832 10.757 206.553 10.3385Q206.274 9.92 205.468 9.92L203.143 9.92ZM202.027 26.66L197.253 26.66Q196.664 26.66 196.4 26.3965Q196.137 26.133 196.137 25.544L196.137 5.456Q196.137 4.867 196.4 4.6035Q196.664 4.34 197.253 4.34L207.576 4.34Q211.048 4.34 212.365 5.7815Q213.683 7.223 213.683 9.517L213.683 10.943Q213.683 12.245 213.296 13.1595Q212.908 14.074 211.947 14.477Q213.621 14.663 214.66 15.841Q215.698 17.019 215.698 18.972L215.698 25.544Q215.698 26.133 215.435 26.3965Q215.171 26.66 214.582 26.66L209.777 26.66Q209.188 26.66 208.924 26.3965Q208.661 26.133 208.661 25.544L208.661 20.801Q208.661 20.119 208.398 19.7935Q208.134 19.468 207.483 19.468L203.143 19.468L203.143 25.544Q203.143 26.133 202.88 26.3965Q202.616 26.66 202.027 26.66ZM234.67 26.66L220.286 26.66Q219.697 26.66 219.434 26.3965Q219.17 26.133 219.17 25.544L219.17 5.456Q219.17 4.867 219.434 4.6035Q219.697 4.34 220.286 4.34L234.67 4.34Q235.259 4.34 235.523 4.6035Q235.786 4.867 235.786 5.456L235.786 9.083Q235.786 9.672 235.523 9.9355Q235.259 10.199 234.67 10.199L226.114 10.199L226.114 12.586L232.159 12.586Q232.748 12.586 233.012 12.8495Q233.275 13.113 233.275 13.702L233.275 17.019Q233.275 17.608 233.012 17.8715Q232.748 18.135 232.159 18.135L226.114 18.135L226.114 20.801L234.67 20.801Q235.259 20.801 235.523 21.0645Q235.786 21.328 235.786 21.917L235.786 25.544Q235.786 26.133 235.523 26.3965Q235.259 26.66 234.67 26.66Z" fill="#FFBF00" clip-path="url(#clip_path_1)" transform="translate(6 12)" />
  </g>
</svg>